{
  "accessors": [
    {
      "bufferView": 2,
      "componentType": 5126,
      "count": 12870,
      "max": [
        4.536147117614746,
        4.033406734466553,
        5.202977180480957
      ],
      "min": [
        -4.536147117614746,
        -4.382943153381348,
        -0.02715611457824707
      ],
      "type": "VEC3"
    },
    {
      "bufferView": 2,
      "byteOffset": 154440,
      "componentType": 5126,
      "count": 12870,
      "max": [
        0.9999986886978149,
        0.999984860420227,
        1.0
      ],
      "min": [
        -0.9999986886978149,
        -0.9999599456787109,
        -1.0
      ],
      "type": "VEC3"
    },
    {
      "bufferView": 1,
      "componentType": 5126,
      "count": 12870,
      "max": [
        0.9891266822814941,
        0.9939562678337097
      ],
      "min": [
        0.00312524545006454,
        0.00312524545006454
      ],
      "type": "VEC2"
    },
    {
      "bufferView": 0,
      "componentType": 5125,
      "count": 31494,
      "type": "SCALAR"
    },
    {
      "bufferView": 2,
      "byteOffset": 308880,
      "componentType": 5126,
      "count": 3799,
      "max": [
        1.6100889444351196,
        1.6144499778747559,
        4.302207946777344
      ],
      "min": [
        -1.6514219045639038,
        -1.6235283613204956,
        -2.55759859085083
      ],
      "type": "VEC3"
    },
    {
      "bufferView": 2,
      "byteOffset": 354468,
      "componentType": 5126,
      "count": 3799,
      "max": [
        1.0,
        1.0,
        1.0
      ],
      "min": [
        -0.9999991655349731,
        -1.0,
        -1.0
      ],
      "type": "VEC3"
    },
    {
      "bufferView": 1,
      "byteOffset": 102960,
      "componentType": 5126,
      "count": 3799,
      "max": [
        0.9968747496604919,
        0.9933887720108032
      ],
      "min": [
        0.00312524545006454,
        0.00312524545006454
      ],
      "type": "VEC2"
    },
    {
      "bufferView": 0,
      "byteOffset": 125976,
      "componentType": 5125,
      "count": 8247,
      "type": "SCALAR"
    }
  ],
  "asset": {
    "extras": {
      "author": "assetfactory (https://sketchfab.com/assetfactory)",
      "license": "CC-BY-4.0 (http://creativecommons.org/licenses/by/4.0/)",
      "source": "https://sketchfab.com/3d-models/low-poly-sand-castle-b0fb3f4ec6d643b9b468cc7724b17f85",
      "title": "Low poly sand castle"
    },
    "generator": "Sketchfab-13.68.0",
    "version": "2.0"
  },
  "bufferViews": [
    {
      "buffer": 0,
      "byteLength": 158964,
      "name": "floatBufferViews",
      "target": 34963
    },
    {
      "buffer": 0,
      "byteLength": 133352,
      "byteOffset": 158964,
      "byteStride": 8,
      "name": "floatBufferViews",
      "target": 34962
    },
    {
      "buffer": 0,
      "byteLength": 400056,
      "byteOffset": 292316,
      "byteStride": 12,
      "name": "floatBufferViews",
      "target": 34962
    }
  ],
  "buffers": [
    {
      "byteLength": 692372,
      "uri": "scene.bin"
    }
  ],
  "images": [
    {
      "uri": "textures/Material.001_baseColor.png"
    }
  ],
  "materials": [
    {
      "doubleSided": true,
      "name": "Material.001",
      "pbrMetallicRoughness": {
        "baseColorTexture": {
          "index": 0
        },
        "metallicFactor": 0.0,
        "roughnessFactor": 0.8211145618000169
      }
    }
  ],
  "meshes": [
    {
      "name": "Cylinder.001_Material.001_0",
      "primitives": [
        {
          "attributes": {
            "NORMAL": 1,
            "POSITION": 0,
            "TEXCOORD_0": 2
          },
          "indices": 3,
          "material": 0,
          "mode": 4
        }
      ]
    },
    {
      "name": "Cylinder.002_Material.001_0",
      "primitives": [
        {
          "attributes": {
            "NORMAL": 5,
            "POSITION": 4,
            "TEXCOORD_0": 6
          },
          "indices": 7,
          "material": 0,
          "mode": 4
        }
      ]
    }
  ],
  "nodes": [
    {
      "children": [
        1
      ],
      "matrix": [
        1.0,
        0.0,
        0.0,
        0.0,
        0.0,
        2.220446049250313e-16,
        -1.0,
        0.0,
        0.0,
        1.0,
        2.220446049250313e-16,
        0.0,
        0.0,
        0.0,
        0.0,
        1.0
      ],
      "name": "Sketchfab_model"
    },
    {
      "children": [
        2
      ],
      "matrix": [
        0.009999999776482582,
        0.0,
        0.0,
        0.0,
        0.0,
        0.0,
        0.009999999776482582,
        0.0,
        0.0,
        -0.009999999776482582,
        0.0,
        0.0,
        0.0,
        0.0,
        0.0,
        1.0
      ],
      "name": "SandCastle.fbx"
    },
    {
      "children": [
        3,
        5
      ],
      "name": "RootNode"
    },
    {
      "children": [
        4
      ],
      "matrix": [
        100.0,
        0.0,
        0.0,
        0.0,
        0.0,
        -1.629206793918314e-05,
        -99.99999999999868,
        0.0,
        0.0,
        99.99999999999868,
        -1.629206793918314e-05,
        0.0,
        0.0,
        -133.42640686035156,
        -1.1920928955078125e-05,
        1.0
      ],
      "name": "Cylinder.001"
    },
    {
      "mesh": 0,
      "name": "Cylinder.001_Material.001_0"
    },
    {
      "children": [
        6
      ],
      "matrix": [
        100.0,
        0.0,
        0.0,
        0.0,
        0.0,
        -1.629206793918314e-05,
        -99.99999999999868,
        0.0,
        0.0,
        99.99999999999868,
        -1.629206793918314e-05,
        0.0,
        0.0,
        229.13150024414063,
        -0.9850740432739258,
        1.0
      ],
      "name": "Cylinder.002"
    },
    {
      "mesh": 1,
      "name": "Cylinder.002_Material.001_0"
    }
  ],
  "samplers": [
    {
      "magFilter": 9729,
      "minFilter": 9987,
      "wrapS": 10497,
      "wrapT": 10497
    }
  ],
  "scene": 0,
  "scenes": [
    {
      "name": "Sketchfab_Scene",
      "nodes": [
        0
      ]
    }
  ],
  "textures": [
    {
      "sampler": 0,
      "source": 0
    }
  ]
}
